<?xml version="1.0" encoding="UTF-8" standalone="no"?>
<!-- Uploaded to: SVG Repo, www.svgrepo.com, Generator: SVG Repo Mixer Tools -->

<svg
   fill="#000000"
   width="800px"
   height="800px"
   viewBox="0 0 96 96"
   version="1.1"
   id="svg1"
   sodipodi:docname="forge.svg"
   inkscape:version="1.4.2 (f4327f4, 2025-05-13)"
   xmlns:inkscape="http://www.inkscape.org/namespaces/inkscape"
   xmlns:sodipodi="http://sodipodi.sourceforge.net/DTD/sodipodi-0.dtd"
   xmlns="http://www.w3.org/2000/svg"
   xmlns:svg="http://www.w3.org/2000/svg">
  <defs
     id="defs1" />
  <sodipodi:namedview
     id="namedview1"
     pagecolor="#505050"
     bordercolor="#eeeeee"
     borderopacity="1"
     inkscape:showpageshadow="0"
     inkscape:pageopacity="0"
     inkscape:pagecheckerboard="0"
     inkscape:deskcolor="#d1d1d1"
     inkscape:zoom="0.3875829"
     inkscape:cx="77.402795"
     inkscape:cy="269.61973"
     inkscape:window-width="1920"
     inkscape:window-height="1057"
     inkscape:window-x="1912"
     inkscape:window-y="-8"
     inkscape:window-maximized="1"
     inkscape:current-layer="svg1" />
  <path
     d="M 41.152036,2.0383388 C 36.856124,4.6576501 31.826322,10.810014 29.951764,15.739631 l -1.266202,3.332681 8.830822,-4.846329 c 10.264803,-5.6345376 11.528591,-5.8059395 15.054401,-2.05441 3.802226,4.048466 3.365272,4.904269 -4.075021,7.988297 -41.85225,17.3466 -58.96951,58.602565 -25.450774,61.340168 6.958677,0.568523 7.605659,0.887186 10.727106,5.300183 12.491822,17.661639 29.51976,8.988945 35.883359,-18.276034 1.261373,-5.40399 2.836581,-7.990711 8.46629,-13.905285 C 95.027771,36.858281 95.52025,20.054856 79.273277,15.39562 l -3.244567,-0.93064 1.552274,5.155335 c 0.853389,2.836582 2.240296,6.259793 3.084028,7.609281 4.228317,6.771584 -10.6064,25.765816 -27.546223,35.271382 -7.871212,4.416617 -8.31903,5.131194 -6.390154,10.202036 l 1.18895,3.129896 4.963414,-2.531196 c 5.900089,-3.010397 6.792103,-2.516712 4.677341,2.586721 -2.202877,5.318288 -7.000924,10.741591 -9.503151,10.741591 -7.194053,0 -14.534161,-19.014752 -14.569165,-37.747053 l -0.01811,-9.381239 7.079383,-4.574742 c 7.219402,-4.666478 17.950129,-9.371582 18.993025,-8.327479 0.318663,0.317456 1.246889,4.196933 2.062859,8.620793 l 1.484679,8.041407 4.099162,-4.229524 4.100369,-4.230731 -1.541411,-6.889875 C 64.877928,6.1604348 52.604583,-4.9456869 41.152036,2.0383388 M 19.262077,53.880184 c -7.373905,10.113922 -6.030452,18.26517 3.012811,18.26517 h 4.12451 L 25.562909,65.204783 C 25.10302,61.386865 24.361888,56.091511 23.916484,53.435988 l -0.809934,-4.828224 -3.844473,5.27242"
     fill-rule="evenodd"
     id="path1"
     style="fill:#ffffff;fill-opacity:1;stroke-width:1.20706" />
</svg>
