<?xml version="1.0" encoding="UTF-8" standalone="no"?>
<!-- Uploaded to: SVG Repo, www.svgrepo.com, Generator: SVG Repo Mixer Tools -->

<svg
   width="800px"
   height="800px"
   viewBox="0 0 24 24"
   fill="none"
   version="1.1"
   id="svg2"
   sodipodi:docname="xp.svg"
   inkscape:version="1.4.2 (f4327f4, 2025-05-13)"
   xmlns:inkscape="http://www.inkscape.org/namespaces/inkscape"
   xmlns:sodipodi="http://sodipodi.sourceforge.net/DTD/sodipodi-0.dtd"
   xmlns="http://www.w3.org/2000/svg"
   xmlns:svg="http://www.w3.org/2000/svg">
  <defs
     id="defs2" />
  <sodipodi:namedview
     id="namedview2"
     pagecolor="#505050"
     bordercolor="#eeeeee"
     borderopacity="1"
     inkscape:showpageshadow="0"
     inkscape:pageopacity="0"
     inkscape:pagecheckerboard="0"
     inkscape:deskcolor="#d1d1d1"
     inkscape:zoom="1.09625"
     inkscape:cx="400"
     inkscape:cy="541.39111"
     inkscape:window-width="1920"
     inkscape:window-height="1057"
     inkscape:window-x="1912"
     inkscape:window-y="-8"
     inkscape:window-maximized="1"
     inkscape:current-layer="svg2" />
  <path
     d="m 8.7983579,3.3177705 c 0,3.0131586 -2.4426952,5.4558524 -5.4558538,5.4558524 3.0131586,0 5.4558538,2.4426941 5.4558538,5.4558531 0,-3.013159 2.4426951,-5.4558531 5.4558531,-5.4558531 -3.013158,0 -5.4558531,-2.4426938 -5.4558531,-5.4558524 z"
     stroke="#000000"
     stroke-width="4.36468"
     stroke-linecap="round"
     stroke-linejoin="round"
     id="path2-2"
     style="fill:#ffffff;fill-opacity:1" />
  <path
     d="m 8.7983579,3.3177705 c 0,3.0131586 -2.4426952,5.4558524 -5.4558538,5.4558524 3.0131586,0 5.4558538,2.4426941 5.4558538,5.4558531 0,-3.013159 2.4426951,-5.4558531 5.4558531,-5.4558531 -3.013158,0 -5.4558531,-2.4426938 -5.4558531,-5.4558524 z"
     stroke="#000000"
     stroke-width="2"
     stroke-linecap="round"
     stroke-linejoin="round"
     id="path2-9-4"
     style="fill:#ffffff;fill-opacity:1;stroke:#ffffff;stroke-width:1.44035;stroke-dasharray:none;stroke-opacity:1" />
  <path
     d="m 16.389906,12.505535 c 0,2.14526 -1.73911,3.88437 -3.884371,3.88437 2.145261,0 3.884371,1.73911 3.884371,3.884371 0,-2.145261 1.73911,-3.884371 3.88437,-3.884371 -2.14526,0 -3.88437,-1.73911 -3.88437,-3.88437 z"
     stroke="#000000"
     stroke-width="3.1075"
     stroke-linecap="round"
     stroke-linejoin="round"
     id="path2"
     style="fill:#ffffff;fill-opacity:1" />
  <path
     d="m 16.389906,12.505535 c 0,2.14526 -1.73911,3.88437 -3.884371,3.88437 2.145261,0 3.884371,1.73911 3.884371,3.884371 0,-2.145261 1.73911,-3.884371 3.88437,-3.884371 -2.14526,0 -3.88437,-1.73911 -3.88437,-3.88437 z"
     stroke="#000000"
     stroke-width="2"
     stroke-linecap="round"
     stroke-linejoin="round"
     id="path2-9"
     style="fill:#ffffff;fill-opacity:1;stroke:#ffffff;stroke-width:1.02547;stroke-dasharray:none;stroke-opacity:1" />
</svg>
